<?xml version="1.0" standalone="no"?>
<!DOCTYPE svg PUBLIC "-//W3C//DTD SVG 20010904//EN"
 "http://www.w3.org/TR/2001/REC-SVG-20010904/DTD/svg10.dtd">
<svg version="1.0" xmlns="http://www.w3.org/2000/svg"
 width="800.000000pt" height="1000.000000pt" viewBox="0 0 800.000000 1000.000000"
 preserveAspectRatio="xMidYMid meet">
<metadata>
Created by potrace 1.16, written by Peter Selinger 2001-2019
</metadata>
<g transform="translate(0.000000,1000.000000) scale(0.100000,-0.100000)"
fill="#000000" stroke="none">
<path d="M3314 9187 c-101 -80 -149 -135 -187 -217 -61 -127 -47 -253 42 -370
l48 -65 -28 -190 c-16 -104 -34 -225 -41 -269 l-11 -78 -19 36 c-17 33 -17 39
-3 66 20 39 19 46 -14 115 -19 42 -47 78 -90 117 -134 121 -362 150 -544 68
l-49 -22 64 -37 c34 -20 87 -53 117 -74 48 -32 59 -35 98 -30 36 5 49 1 80
-20 70 -49 96 -74 88 -87 -6 -9 -4 -11 5 -5 9 6 11 -2 8 -34 -2 -22 0 -41 4
-41 5 0 8 6 8 14 0 10 12 13 48 10 26 -2 60 -3 77 -4 23 0 42 -14 87 -60 l57
-61 7 28 c9 39 51 111 72 122 10 5 48 4 97 -5 112 -18 162 -17 278 7 134 27
266 73 296 104 14 13 23 26 20 28 -19 14 -143 57 -182 62 -26 3 -45 10 -43 13
9 15 -174 16 -260 2 -107 -18 -209 -89 -249 -174 -10 -20 -19 -35 -21 -33 -4
3 56 341 70 402 3 11 22 38 42 60 48 51 116 157 154 237 25 53 30 75 30 138
-1 74 -46 280 -67 301 -5 5 -40 -16 -89 -54z"/>
<path d="M4260 9201 c-22 -42 0 -90 57 -119 41 -22 67 -15 78 21 6 18 8 44 4
57 -4 14 -8 21 -8 15 -1 -7 -4 -6 -9 0 -14 20 -62 45 -86 45 -15 0 -30 -8 -36
-19z"/>
<path d="M4880 8853 c-34 -5 -100 -34 -100 -45 0 -4 -6 -7 -12 -5 -8 1 -12 -6
-10 -18 3 -16 1 -18 -9 -7 -11 10 -21 4 -56 -30 -24 -23 -43 -45 -43 -49 0 -4
16 -14 36 -24 41 -19 140 -14 199 10 18 8 35 11 39 8 3 -4 6 -1 6 5 0 6 9 14
21 17 11 4 18 9 15 12 -7 7 20 33 34 33 6 0 8 5 4 11 -3 6 -1 14 5 18 8 6 9
15 2 33 -7 19 -16 25 -35 23 -14 -2 -26 0 -26 3 0 8 -32 10 -70 5z"/>
<path d="M1563 8818 c-17 -29 -6 -162 21 -238 15 -41 41 -115 57 -165 26 -79
55 -124 80 -125 3 0 14 28 23 63 10 34 22 78 28 97 16 59 13 96 -19 190 -20
58 -60 130 -73 130 -4 0 -21 14 -38 30 -33 31 -65 39 -79 18z"/>
<path d="M1156 8673 c-75 -75 -44 -183 53 -183 37 0 42 3 60 38 34 67 32 123
-6 148 -40 26 -79 25 -107 -3z"/>
<path d="M2200 8343 c-33 -6 -90 -50 -90 -69 0 -8 4 -12 10 -9 6 3 7 -1 4 -10
-5 -11 -2 -16 7 -14 8 1 30 -6 50 -16 82 -40 168 20 160 113 -1 12 -84 15
-141 5z"/>
<path d="M4600 8195 c-7 -9 -15 -13 -18 -10 -8 8 -31 -28 -32 -50 0 -14 3 -16
9 -7 6 10 10 10 21 -3 7 -8 21 -15 30 -15 10 0 41 -11 68 -25 28 -14 52 -25
54 -25 2 0 5 14 6 30 1 17 -2 30 -7 30 -5 0 -11 10 -13 22 -2 14 -18 31 -43
45 -47 27 -58 28 -75 8z"/>
<path d="M4797 8061 c-21 -47 -14 -87 16 -95 12 -3 46 -6 75 -6 43 0 52 3 52
18 0 14 2 15 10 2 8 -12 10 -11 10 7 0 12 4 24 9 27 4 3 6 17 4 31 -3 13 -9
22 -15 19 -5 -3 -6 -15 -3 -27 l6 -22 -20 22 c-10 13 -30 27 -43 32 -23 10
-23 10 4 10 14 1 29 -5 31 -11 4 -10 8 -9 16 2 8 12 5 17 -17 23 -37 10 -102
5 -102 -7 0 -6 -4 -5 -8 1 -6 9 -14 0 -25 -26z"/>
<path d="M1820 8055 c-7 -8 -16 -13 -20 -10 -5 3 -6 -4 -3 -15 4 -14 -1 -22
-20 -29 -28 -11 -42 -47 -21 -55 8 -3 14 -10 14 -15 0 -6 -6 -8 -14 -5 -18 7
-36 -26 -35 -63 1 -20 3 -22 6 -9 7 26 30 49 43 41 5 -3 10 -1 10 5 0 6 7 18
15 26 13 14 15 14 15 0 0 -8 -4 -18 -10 -21 -16 -10 -12 -55 5 -55 9 0 18 -6
21 -14 6 -16 51 -14 84 4 28 15 25 28 -7 33 -26 4 -26 4 5 6 20 0 32 6 32 15
0 11 -11 13 -42 10 -34 -3 -38 -2 -18 5 24 9 24 9 3 10 -13 1 -22 7 -20 13 1
7 -8 14 -20 16 -24 4 -31 18 -12 24 6 2 12 17 12 32 0 15 3 23 7 17 5 -9 10
-8 20 4 11 13 9 15 -8 15 -15 0 -20 5 -16 15 8 19 -10 19 -26 0z"/>
<path d="M3599 7968 c-8 -15 -9 -52 -4 -122 4 -56 8 -107 8 -115 0 -8 9 -2 20
13 10 14 27 26 36 26 19 0 61 -40 61 -58 0 -7 9 -12 19 -12 11 0 23 -5 26 -10
4 -6 12 -10 18 -9 24 3 37 -1 37 -12 0 -5 -5 -7 -12 -3 -7 4 -8 3 -4 -4 4 -6
-18 -36 -48 -68 -51 -52 -58 -56 -88 -50 -36 7 -92 60 -85 80 3 7 -1 13 -8 13
-10 0 -9 -10 6 -38 10 -21 19 -47 19 -59 0 -35 20 -57 47 -52 15 3 32 -3 46
-15 30 -27 70 -43 113 -45 22 0 22 -2 18 -200 -4 -170 -2 -197 10 -186 7 7 12
18 9 24 -2 7 0 15 6 19 6 3 11 -1 11 -10 0 -15 2 -15 22 -1 26 19 73 22 62 5
-4 -7 3 -19 16 -29 35 -26 39 -96 9 -151 -13 -24 -32 -51 -41 -61 -20 -20 -26
-122 -8 -133 6 -3 10 -15 10 -26 0 -11 -4 -18 -9 -15 -12 8 -22 -34 -15 -61 3
-11 1 -24 -5 -27 -6 -4 -11 -2 -11 3 0 21 -20 11 -26 -13 -3 -13 -14 -26 -23
-29 -11 -2 -21 -18 -24 -37 -5 -24 -11 -31 -23 -26 -12 4 -15 2 -11 -9 4 -8 1
-17 -5 -21 -13 -8 -130 -6 -165 3 l-23 5 23 19 c14 12 17 18 8 19 -9 0 -10 4
-4 13 13 17 11 36 -5 46 -8 5 -13 12 -12 17 3 15 -17 16 -32 1 -28 -28 -52
-36 -71 -22 -10 7 -17 17 -16 21 3 21 -2 35 -11 29 -6 -3 -7 1 -4 10 4 8 2 21
-3 28 -5 6 -22 48 -38 92 -28 79 -114 261 -182 383 -25 44 -39 60 -46 53 -7
-7 2 -37 31 -98 65 -138 153 -440 139 -476 -9 -23 -62 -22 -97 3 -15 11 -30
16 -34 13 -4 -4 -4 0 0 10 5 14 0 17 -24 17 -26 0 -32 -5 -43 -37 -23 -71 -49
-73 -89 -8 -12 19 -27 32 -32 29 -6 -4 -8 -3 -5 3 4 6 0 19 -8 29 -14 18 -16
18 -29 1 -13 -16 -14 -16 -20 8 -16 65 -42 -8 -34 -95 l5 -49 -49 19 c-47 18
-49 18 -58 0 -7 -12 -7 -28 0 -45 5 -14 10 -36 10 -47 0 -18 -4 -20 -32 -14
-30 6 -31 5 -13 -8 20 -15 20 -15 0 -17 -11 -1 -26 -2 -33 -2 -10 1 -10 -2 -1
-13 9 -11 7 -14 -15 -14 -22 0 -25 -4 -22 -29 2 -15 7 -34 11 -41 6 -10 4 -12
-9 -7 -10 4 -21 7 -25 7 -4 0 -39 31 -77 68 l-70 69 -3 124 -3 124 39 18 c21
9 48 25 59 35 11 11 30 25 42 31 72 38 109 163 58 196 -13 9 -31 13 -41 9 -13
-5 -16 -4 -11 5 5 7 -5 17 -26 26 -42 19 -89 48 -65 41 15 -5 18 -1 15 22 -3
24 -7 27 -38 25 -19 -1 -49 -4 -65 -8 -24 -5 -45 1 -98 29 -70 37 -96 46 -63
21 22 -16 9 -20 -31 -9 -27 7 -31 34 -5 34 16 1 16 1 0 14 -10 7 -18 19 -18
27 0 11 2 11 10 -1 9 -13 10 -13 10 0 0 32 -15 41 -36 22 -11 -11 -26 -22 -34
-25 -10 -3 -11 -6 -2 -6 6 -1 12 -10 12 -21 0 -11 7 -20 16 -20 23 0 6 -20
-19 -21 -16 -1 -17 -3 -5 -6 28 -7 9 -33 -26 -34 -28 0 -29 -1 -9 -9 13 -5 25
-21 29 -37 3 -15 10 -41 15 -57 12 -39 12 -39 -13 -22 -31 22 -55 20 -63 -4
-3 -11 -11 -20 -16 -20 -5 0 -9 -22 -9 -49 0 -33 -5 -51 -14 -54 -10 -4 -13
-1 -9 9 3 7 0 14 -6 14 -6 0 -11 -5 -11 -11 0 -5 -4 -7 -10 -4 -19 12 -10 -14
11 -34 19 -17 21 -27 15 -71 -6 -48 -5 -54 24 -86 16 -19 30 -39 30 -44 0 -6
6 -10 14 -10 8 0 16 -7 20 -15 8 -21 34 -19 32 3 -2 29 55 28 88 -3 15 -14 30
-25 34 -25 11 0 102 -89 102 -99 0 -6 7 -8 15 -5 19 8 218 -190 213 -213 -2
-9 -18 -21 -36 -27 -47 -16 -58 -40 -27 -54 33 -15 25 -36 -38 -94 l-51 -47
32 -18 c39 -22 40 -30 6 -44 -25 -9 -26 -11 -10 -28 9 -9 16 -23 16 -29 0 -6
9 -16 20 -22 16 -9 18 -15 9 -38 -5 -15 -17 -32 -26 -39 -14 -11 -14 -14 1
-29 14 -14 24 -15 59 -6 l42 11 -40 -37 c-22 -20 -39 -40 -37 -44 1 -5 -5 -8
-14 -8 -14 0 -14 -3 -4 -15 11 -13 10 -14 -3 -10 -8 4 -18 2 -21 -3 -3 -5 12
-15 34 -22 42 -14 57 -34 38 -54 -9 -10 -31 -2 -107 36 -53 26 -99 48 -103 48
-5 0 -8 -13 -8 -30 0 -54 22 -131 61 -216 21 -46 39 -87 39 -90 0 -3 -28 11
-62 30 -123 68 -414 147 -535 146 l-28 -1 40 -36 c139 -125 337 -202 561 -220
l84 -6 52 -52 c29 -28 67 -61 83 -73 l30 -22 -40 7 c-22 5 -85 8 -140 7 -126
-1 -192 -24 -270 -96 -30 -27 -55 -54 -55 -59 0 -12 121 -48 187 -55 36 -5 57
-13 63 -24 13 -24 42 -34 52 -18 6 10 8 8 8 -4 0 -10 7 -18 16 -18 16 0 12 12
-14 43 -13 14 -13 17 -1 17 43 0 186 23 250 40 41 11 77 20 80 20 12 0 19 -46
20 -140 1 -87 -1 -95 -22 -112 -23 -19 -23 -19 -1 -8 22 11 22 10 22 -70 0
-44 -3 -80 -7 -80 -3 0 -14 7 -23 15 -14 13 -15 11 -14 -13 1 -22 5 -26 22
-24 21 3 22 0 22 -95 0 -54 -4 -168 -10 -253 -5 -85 -14 -292 -20 -460 -21
-598 -45 -719 -172 -876 -81 -100 -235 -211 -603 -434 -121 -73 -256 -156
-300 -185 -44 -28 -156 -95 -250 -148 -249 -143 -339 -211 -482 -366 -167
-181 -213 -244 -293 -404 -69 -139 -167 -414 -157 -441 5 -12 105 -15 654 -19
594 -4 657 -6 758 -24 150 -28 312 -70 558 -147 335 -105 249 -98 1162 -101
475 -2 834 0 884 6 46 6 198 39 337 74 548 139 709 154 1629 155 341 1 638 4
660 8 33 6 41 12 48 39 20 67 -107 420 -215 602 -51 85 -87 130 -183 226 -98
98 -140 132 -227 183 -145 85 -580 300 -868 429 -786 351 -1047 543 -1066 784
-5 67 20 487 30 496 2 3 56 -1 118 -7 139 -14 486 -8 543 9 53 17 140 106 154
158 6 21 11 90 11 153 1 129 15 184 55 215 92 71 105 87 105 124 0 30 -8 45
-45 81 l-46 45 73 35 c65 31 74 39 86 75 12 35 11 46 -7 93 -29 75 -29 189 0
226 19 24 25 26 107 26 102 0 151 12 191 46 34 29 46 69 32 108 -6 15 -37 61
-70 104 -59 78 -183 291 -250 431 -46 97 -50 161 -22 308 28 147 27 216 -9
429 -34 196 -38 213 -48 198 -8 -11 -93 -46 -99 -40 -2 1 15 16 37 31 43 30
49 48 6 20 -14 -10 -26 -13 -26 -9 0 5 -5 2 -10 -6 -8 -12 -10 -12 -10 5 0 11
9 26 20 33 11 7 20 18 19 25 0 9 -2 9 -6 0 -2 -7 -10 -13 -17 -13 -7 0 -18
-10 -24 -22 -10 -22 -11 -21 -11 9 -1 17 -7 33 -13 36 -10 3 -10 7 0 19 10 13
9 18 -3 28 -8 7 -15 9 -15 4 0 -5 -11 -14 -25 -21 -20 -9 -25 -8 -25 2 0 7 10
16 23 19 20 7 20 8 4 15 -34 13 6 33 60 30 40 -3 48 0 51 15 4 18 -1 18 -69
12 -41 -3 -101 -13 -134 -22 -55 -14 -99 -23 -133 -26 -7 -1 -11 -7 -8 -13 2
-7 -6 -17 -20 -24 -13 -6 -24 -15 -24 -21 0 -13 11 -7 58 27 18 14 35 23 38
21 2 -2 -23 -23 -56 -46 -33 -22 -60 -37 -60 -31 0 5 4 9 9 9 5 0 7 9 4 19 -3
13 7 30 32 52 45 42 65 54 65 39 0 -21 20 -8 97 66 43 41 74 74 68 72 -5 -1
-20 4 -32 13 -22 15 -22 17 -7 62 8 25 24 62 35 83 23 46 23 56 3 95 -13 26
-17 29 -31 17 -15 -11 -15 -11 -6 6 11 20 4 41 -26 79 -16 20 -41 23 -41 4 0
-7 -13 -44 -30 -82 -28 -67 -29 -68 -27 -30 1 22 5 45 7 50 3 6 3 48 0 95 -8
125 -18 68 -29 -165 -8 -166 -14 -211 -32 -258 -12 -31 -26 -55 -31 -54 -6 1
-13 -4 -16 -12 -3 -9 0 -11 8 -6 10 6 12 3 6 -11 -17 -44 -47 -165 -43 -172 9
-13 -14 -116 -29 -133 -8 -8 -14 -25 -14 -36 0 -11 -7 -26 -15 -33 -8 -7 -15
-18 -15 -24 0 -6 4 -5 9 3 6 9 10 3 13 -22 5 -47 -27 -176 -51 -201 -18 -20
-19 -25 -5 -75 16 -63 16 -64 -81 -112 -75 -36 -100 -37 -122 -1 -10 15 -25
32 -33 39 -11 9 -11 12 -2 13 17 0 -60 112 -92 133 -14 10 -28 28 -32 41 -4
17 -12 23 -31 22 -15 -1 -28 -7 -31 -15 -3 -8 0 -11 6 -7 6 3 13 -2 17 -13 4
-12 12 -17 24 -14 13 3 24 -6 40 -37 11 -22 21 -47 21 -55 0 -8 5 -15 11 -15
5 0 8 -4 5 -9 -3 -5 1 -14 9 -21 22 -18 40 -115 27 -144 -32 -70 -166 -93
-203 -34 -5 7 -9 30 -9 51 0 44 -14 42 -23 -2 -8 -39 -50 -61 -116 -61 -52 0
-74 13 -86 50 -7 21 -25 28 -25 10 0 -31 -128 6 -152 43 -10 17 16 70 77 157
30 43 55 81 55 85 0 4 -35 -25 -77 -64 -43 -40 -83 -69 -90 -67 -7 3 -12 0
-10 -7 1 -7 -13 -13 -37 -15 -32 -3 -44 2 -73 30 -52 50 -58 66 -35 91 11 12
23 32 26 44 4 13 26 38 49 57 48 38 158 96 184 96 12 0 14 3 6 11 -7 7 -22 5
-49 -10 -22 -11 -57 -29 -80 -40 -22 -11 -47 -27 -54 -36 -7 -8 -19 -15 -26
-15 -8 0 -14 -4 -14 -9 0 -14 -35 -7 -53 11 -9 9 -17 24 -17 32 0 9 -3 16 -7
16 -5 0 -7 30 -6 67 2 56 6 71 24 86 16 12 17 17 6 17 -25 0 -26 23 -3 49 11
13 15 21 9 17 -15 -9 -18 10 -3 19 6 4 8 11 4 16 -3 5 0 17 8 26 11 15 10 16
-12 10 l-25 -6 23 19 c13 10 18 21 12 25 -13 8 46 72 74 81 28 9 78 45 72 52
-3 2 -13 -1 -22 -9 -16 -13 -16 -12 -1 18 20 39 51 61 94 69 18 3 35 10 38 14
7 12 47 -1 69 -22 11 -10 23 -18 27 -18 4 0 10 -8 12 -17 3 -12 5 -9 6 8 1 17
-7 33 -21 43 -13 9 -17 14 -10 11 6 -3 12 -1 12 6 0 6 -8 9 -20 6 -11 -3 -20
-1 -20 4 0 5 9 9 19 9 11 0 27 8 37 17 27 27 123 71 144 66 11 -3 31 -16 46
-30 14 -13 27 -23 28 -21 19 26 31 108 38 248 1 25 6 48 10 51 5 3 11 19 13
35 l5 29 -27 -31 c-47 -53 -77 -67 -153 -68 -39 -1 -70 2 -70 6 0 16 -64 36
-93 31 -20 -4 -25 -8 -16 -14 10 -6 10 -13 -1 -36 -8 -15 -15 -43 -16 -60 -1
-21 -10 -40 -25 -53 -16 -13 -18 -18 -6 -14 9 3 17 2 17 -4 0 -9 -103 -32
-143 -32 -20 0 -22 11 -4 29 10 10 8 15 -6 26 -17 12 -17 14 5 29 12 9 18 16
13 16 -14 0 -75 -38 -101 -62 -17 -15 -24 -17 -30 -6 -4 7 -4 10 1 6 9 -8 35
9 35 23 0 5 -8 6 -17 2 -17 -6 -17 -5 -3 13 9 10 27 43 40 71 13 29 25 51 27
49 2 -2 -8 -29 -22 -59 -27 -60 -32 -81 -12 -57 7 8 38 29 70 45 32 17 68 36
80 42 34 19 55 16 60 -9 3 -21 4 -21 12 -4 5 12 3 21 -6 27 -11 7 -10 11 6 23
11 9 23 16 28 16 4 0 7 14 7 30 0 17 4 30 8 30 4 0 13 15 20 33 16 45 82 107
125 116 48 11 132 -4 163 -28 15 -12 30 -18 35 -15 13 8 31 83 24 103 -5 17
-9 17 -68 -4 -43 -16 -86 -23 -139 -23 -76 -1 -78 0 -78 24 0 14 -7 27 -15 30
-12 5 -9 15 16 50 34 50 24 57 -38 24 -33 -17 -63 -26 -63 -17 0 1 5 18 11 37
18 62 20 75 7 62 -15 -15 -52 4 -41 21 4 7 0 7 -10 -2 -18 -14 -23 -26 -8 -16
5 3 12 1 16 -5 3 -5 -6 -15 -22 -21 -15 -5 -31 -15 -35 -22 -4 -6 -10 -8 -15
-4 -4 5 -2 11 4 15 16 10 35 61 27 74 -4 6 -2 8 3 5 6 -4 13 3 16 16 10 37 11
39 44 75 41 45 30 65 -33 60 -23 -1 -40 0 -37 5 2 4 0 7 -5 7 -12 0 -22 -25
-22 -55 0 -13 -4 -27 -10 -30 -15 -10 -7 70 10 91 8 10 10 15 3 11 -6 -4 -14
-3 -17 2 -4 5 -2 12 3 16 17 10 0 37 -21 32 -13 -4 -23 3 -32 22 -9 16 -30 32
-53 40 -51 18 -68 32 -51 42 7 4 -5 8 -29 7 -41 0 -58 -18 -54 -55 3 -23 -48
-25 -116 -5 -38 11 -88 23 -113 26 -25 4 -77 22 -115 41 -80 41 -110 44 -126
13z m584 -112 c9 -7 17 -18 17 -25 0 -6 5 -11 10 -11 6 0 10 -7 10 -15 0 -8 5
-15 11 -15 6 0 9 -6 6 -14 -3 -8 -2 -16 3 -18 4 -2 10 -19 12 -38 1 -19 8 -38
13 -42 6 -5 6 -8 -2 -8 -6 0 -16 -15 -23 -34 -18 -56 -39 -69 -95 -56 -35 8
-50 8 -55 0 -5 -7 -10 -3 -15 12 -6 20 -8 21 -12 4 -3 -12 8 -31 32 -56 l36
-37 -28 -19 c-116 -78 -212 -79 -284 -4 -47 50 -53 80 -22 125 28 41 57 55
113 55 50 0 91 -16 112 -43 9 -12 20 -19 24 -15 4 4 2 14 -4 21 -7 8 -9 17 -5
21 4 4 0 4 -9 1 -12 -5 -17 2 -22 30 -7 34 1 52 46 110 5 6 18 23 29 38 33 43
71 56 102 33z m17 -975 c-8 -16 -8 -21 2 -21 7 0 24 -16 38 -34 14 -19 28 -32
33 -29 19 12 4 -51 -18 -73 -14 -14 -25 -31 -25 -39 0 -8 -8 -15 -17 -15 -13
0 -15 -2 -5 -8 9 -6 -2 -16 -34 -32 -49 -26 -62 -46 -86 -133 -8 -33 -17 -46
-26 -42 -8 3 -18 5 -24 5 -7 0 -7 4 0 13 6 7 12 31 14 53 2 23 12 49 21 59 22
21 22 32 0 14 -15 -13 -15 -12 -2 11 7 14 14 27 14 30 5 38 114 275 122 267 2
-3 0 -15 -7 -26z m-977 -687 c-1 -5 8 -10 20 -11 12 -1 34 -4 50 -8 17 -5 27
-3 27 4 0 6 -9 11 -20 11 -11 0 -20 5 -20 11 0 7 7 8 18 4 9 -4 24 -7 33 -7 8
0 20 -12 26 -28 10 -26 9 -29 -15 -35 -14 -3 -22 -9 -16 -13 5 -4 9 -13 9 -21
0 -8 7 -16 15 -18 13 -4 13 -3 0 6 -12 9 -11 11 8 11 12 0 22 5 22 11 0 6 -7
9 -15 6 -8 -4 -17 -2 -20 3 -4 6 3 10 14 10 11 0 23 5 26 10 5 8 12 7 23 -2
10 -7 6 0 -8 15 -21 24 -22 30 -10 37 18 11 27 12 57 4 l22 -6 -22 -19 -22
-18 22 -1 c28 0 53 -10 53 -21 0 -5 -9 -9 -19 -9 -27 0 -34 -15 -16 -30 20
-16 19 -28 -2 -33 -12 -3 -10 -5 7 -6 20 -1 22 -3 10 -11 -8 -5 -10 -10 -5
-10 6 0 3 -5 -5 -10 -13 -9 -13 -11 0 -21 12 -8 9 -9 -11 -5 -19 4 -29 1 -33
-10 -4 -10 -14 -14 -25 -11 -14 3 -18 1 -14 -9 3 -7 8 -13 11 -13 36 5 72 -35
52 -55 -7 -7 -10 -5 -10 7 0 10 -8 17 -20 17 -25 0 -25 -9 -2 -26 16 -12 16
-13 -4 -14 -11 0 -29 -7 -40 -15 -18 -15 -18 -15 0 -8 13 4 17 3 13 -4 -14
-22 -268 -40 -264 -19 1 6 -5 10 -15 8 -9 -1 -25 8 -35 22 -11 13 -28 26 -39
29 -12 3 -6 5 16 7 27 1 31 3 16 9 -19 7 -18 8 4 14 24 6 24 6 5 25 -11 10
-31 17 -45 16 -14 -2 -17 -1 -7 2 9 3 17 9 17 14 0 5 -8 11 -17 13 -24 6 29
-1 67 -9 18 -4 30 -2 30 4 0 6 12 12 28 14 27 3 27 4 -5 9 -20 3 -31 1 -30 -5
1 -6 -4 -11 -10 -10 -39 3 -44 5 -38 13 3 6 -9 8 -27 7 -18 -2 -23 -1 -10 1
14 3 22 12 22 24 0 20 15 26 25 9 3 -5 14 -10 23 -10 12 0 10 4 -8 17 l-24 17
30 13 29 13 -35 -6 c-47 -8 -34 3 16 15 33 8 35 9 11 10 -16 1 -26 5 -22 11 4
6 10 8 14 6 4 -3 13 0 21 5 13 8 13 10 0 19 -21 13 -64 12 -78 -2 -7 -7 -12
-8 -12 -2 0 20 51 38 106 38 29 1 54 5 54 9 0 5 6 7 13 4 6 -2 11 -8 10 -13z
m2006 -661 c-12 -15 -12 -16 3 -10 10 3 20 2 23 -4 4 -5 11 -6 17 -3 6 4 8 -1
4 -13 -3 -10 1 -28 9 -39 14 -18 16 -18 49 21 19 22 37 37 41 33 6 -6 -7 -96
-21 -133 -6 -18 -4 -17 20 4 l26 25 -3 -23 c-2 -12 -10 -27 -18 -32 -9 -6 -10
-9 -2 -9 18 0 -28 -67 -51 -73 -10 -3 -15 -10 -12 -15 3 -5 -4 -18 -17 -28
-21 -19 -21 -19 -7 0 14 18 14 18 -7 6 -12 -8 -20 -17 -17 -21 5 -8 -27 -29
-45 -29 -5 0 -14 15 -21 34 -6 18 -29 63 -50 99 -42 69 -49 101 -26 110 8 3
18 23 22 44 6 31 8 34 15 18 6 -15 8 -11 8 18 1 36 2 37 37 37 33 0 35 -2 23
-17z m-2480 -55 c11 -17 29 -67 41 -112 12 -45 37 -133 55 -196 18 -63 32
-116 30 -118 -8 -9 -65 31 -102 71 -38 41 -41 50 -48 118 -3 41 -15 111 -26
157 -25 107 -24 112 6 112 18 0 31 -10 44 -32z m1391 -52 c0 5 8 -6 16 -23 19
-38 34 -43 35 -10 0 21 1 21 9 2 9 -20 9 -20 9 1 1 11 -5 26 -11 33 -11 11 -9
11 8 1 13 -8 20 -20 17 -31 -3 -10 5 -34 17 -53 12 -20 18 -41 14 -47 -4 -7
-3 -9 3 -6 14 9 37 -19 30 -37 -3 -7 -2 -17 3 -22 4 -5 11 -52 13 -104 3 -52
8 -104 12 -115 3 -11 -6 5 -20 35 -15 30 -28 65 -28 77 -1 11 -5 19 -8 17 -9
-5 -49 89 -46 111 2 22 -20 27 -42 11 -12 -9 -12 -7 -3 11 10 17 9 25 -3 36
-8 8 -16 31 -18 50 -2 20 -8 42 -14 49 -17 22 -25 44 -9 24 9 -11 16 -16 16
-10z m-1070 -58 c0 -12 61 -110 84 -136 l20 -22 23 27 c12 16 22 31 23 35 0 4
5 19 12 35 11 26 14 35 17 48 2 11 41 -16 41 -28 0 -7 7 -20 14 -30 13 -16 14
-16 37 2 14 10 36 21 49 22 23 4 25 0 37 -61 15 -74 10 -128 -14 -174 -17 -30
-33 -140 -32 -220 0 -21 9 -75 19 -119 11 -45 18 -82 17 -84 -2 -1 -12 16 -22
40 -10 23 -24 46 -32 50 -7 4 -13 15 -13 22 0 8 -7 15 -16 15 -13 0 -15 8 -11
38 9 64 28 126 44 144 9 10 11 18 5 18 -6 0 -27 -20 -48 -45 -33 -40 -36 -50
-31 -88 2 -23 8 -50 12 -59 6 -15 -2 -14 -57 7 -34 14 -67 32 -73 42 -5 9 -22
30 -36 47 -62 72 -187 257 -217 322 l-34 69 72 74 72 73 19 -28 c10 -16 19
-32 19 -36z m616 36 c-3 -9 -2 -12 5 -9 5 4 17 1 26 -7 13 -10 15 -10 9 0 -6
10 -1 12 21 9 24 -3 28 -8 25 -30 -2 -15 1 -27 7 -27 6 0 8 8 5 18 -5 16 -5
16 5 0 18 -27 -14 -140 -49 -173 -30 -29 -97 -41 -92 -17 1 8 -2 11 -8 7 -13
-8 -39 52 -47 110 -5 38 -2 51 21 85 27 41 45 55 26 20 -8 -16 -8 -18 4 -14 8
3 16 14 19 25 3 10 11 19 17 19 7 0 10 -7 6 -16z m1084 -46 c0 -51 -10 -75
-33 -86 -18 -9 -19 -11 -4 -11 9 -1 17 -6 17 -12 0 -5 -5 -7 -12 -3 -8 5 -9 2
-5 -9 4 -10 2 -17 -4 -17 -6 0 -8 -7 -5 -16 5 -13 0 -12 -27 4 -17 11 -51 23
-74 27 -24 4 -44 11 -44 16 -5 28 -2 34 21 35 14 1 38 2 53 3 16 0 26 5 22 11
-7 12 -45 13 -45 2 0 -5 -7 -9 -15 -9 -8 0 -15 2 -15 3 0 11 131 73 144 68 9
-3 16 -1 16 6 0 6 -5 8 -12 4 -7 -4 -8 -3 -4 4 13 22 26 12 26 -20z m-375 -75
c-2 -6 0 -13 5 -15 24 -8 34 -276 11 -313 -9 -15 -8 -55 1 -55 4 0 8 -4 8 -10
0 -6 -5 -9 -11 -8 -6 2 -14 -3 -16 -10 -3 -8 1 -10 11 -6 9 3 16 1 16 -5 0 -6
-4 -11 -8 -11 -4 0 -8 -9 -9 -20 -1 -14 7 -24 23 -30 14 -6 22 -14 19 -20 -3
-5 -3 -15 1 -21 5 -8 9 -7 14 1 5 9 8 5 8 -11 0 -13 5 -42 12 -64 6 -22 14
-51 17 -65 l6 -25 -20 24 c-15 19 -22 21 -28 11 -5 -8 -4 -11 3 -6 15 9 27
-13 13 -27 -18 -18 -14 -47 6 -40 11 4 12 8 5 11 -20 6 -14 21 8 19 12 -1 20
-8 20 -18 0 -10 3 -26 6 -36 5 -15 4 -16 -6 -3 -9 12 -10 10 -5 -13 3 -16 1
-35 -5 -43 -7 -7 -9 -18 -5 -24 3 -5 2 -10 -2 -10 -5 0 -15 -16 -22 -36 -15
-42 -24 -41 -12 2 12 45 -6 178 -36 252 -14 37 -49 103 -78 147 -30 46 -48 83
-42 86 5 4 6 12 3 18 -4 6 -5 11 -3 11 7 0 69 -111 72 -129 2 -9 4 -20 4 -26
1 -5 5 -4 10 4 5 7 5 26 1 41 -4 15 -8 146 -7 291 0 151 4 249 9 229 4 -19 5
-40 3 -47z m235 -183 c11 0 20 -1 20 -2 -1 -19 -30 -82 -40 -88 -11 -7 -11
-11 -1 -24 8 -9 18 -16 23 -16 6 0 5 7 -2 15 -10 13 -9 15 9 15 11 0 21 -2 21
-4 0 -2 3 -11 6 -19 4 -12 -3 -16 -28 -19 -24 -2 -34 -8 -36 -23 -2 -12 0 -16
5 -8 4 6 17 13 28 15 15 2 20 -2 19 -18 0 -14 4 -20 13 -17 25 10 13 -5 -21
-26 -48 -30 -70 -26 -107 17 -17 20 -29 32 -25 25 3 -6 2 -14 -3 -17 -12 -8
-21 18 -11 33 4 7 1 26 -7 42 -13 25 -12 33 3 64 13 28 22 35 43 34 25 -1 25
-1 3 -7 -29 -9 -29 -18 -1 -42 12 -11 19 -26 15 -35 -3 -8 -1 -15 4 -15 17 0
19 17 4 44 -18 35 -18 33 6 39 15 4 20 14 20 39 1 27 2 30 11 16 5 -10 19 -18
29 -18z m-735 -326 c-82 -264 -162 -566 -180 -674 -8 -52 -18 -110 -21 -128
-3 -18 -9 -30 -15 -27 -5 4 -10 -13 -11 -37 -2 -69 -3 -73 -18 -70 -11 2 -10
-2 3 -11 25 -20 21 -30 -6 -13 -22 15 -70 85 -49 72 8 -5 10 -2 6 8 -3 9 -10
13 -15 10 -9 -5 -12 7 -10 41 1 15 0 17 -7 7 -7 -10 -14 -2 -26 30 -10 23 -21
45 -26 48 -4 3 -6 18 -3 33 4 21 10 27 23 24 9 -2 17 1 17 9 0 7 -9 15 -19 17
-10 3 -16 1 -12 -4 3 -5 1 -9 -3 -9 -12 0 -43 103 -43 143 -1 18 -7 62 -14 99
-13 66 -13 67 8 56 12 -6 36 -24 55 -42 l34 -31 -6 43 c-7 58 -63 195 -93 227
-24 26 -42 105 -24 105 6 0 10 -17 10 -37 0 -28 3 -34 10 -23 10 16 7 103 -5
132 -4 9 -5 25 -2 35 3 12 5 8 6 -9 0 -16 5 -28 10 -28 9 0 7 32 -4 65 -3 11
2 7 11 -10 10 -16 17 -40 15 -52 -3 -31 9 -50 20 -32 7 11 9 11 9 1 0 -7 -7
-20 -15 -28 -13 -14 -15 -13 -15 5 0 12 -4 21 -10 21 -14 0 -12 -12 6 -38 18
-27 31 -28 37 -4 3 9 5 -4 6 -30 0 -27 -3 -48 -8 -48 -4 0 -6 12 -3 26 4 24 3
25 -17 13 -23 -15 -27 -34 -10 -44 6 -4 8 -13 6 -19 -3 -7 -1 -19 4 -27 6 -10
9 -7 9 14 0 15 5 27 10 27 12 0 12 1 34 -100 22 -100 76 -274 87 -278 4 -2 6
-9 3 -16 -3 -7 6 -50 20 -97 14 -46 26 -82 26 -79 1 3 3 21 5 40 8 78 38 232
70 357 32 120 174 527 182 520 2 -2 -22 -84 -52 -183z m300 92 c39 -25 51 -40
53 -62 1 -15 6 -32 12 -38 6 -6 8 -2 5 13 -2 12 0 19 6 16 5 -4 7 -11 4 -16
-4 -5 0 -12 9 -15 8 -3 13 -14 11 -24 -2 -12 1 -17 9 -14 8 3 20 -10 31 -33
10 -21 19 -41 21 -44 2 -3 -2 -6 -9 -7 -7 -1 -28 -5 -47 -10 l-35 -10 30 -2
c29 -2 29 -2 -9 -12 -29 -8 -40 -7 -46 2 -4 7 -17 10 -28 8 -14 -4 -19 -2 -16
7 3 7 12 12 21 11 9 0 18 4 20 10 5 14 -27 13 -43 -1 -7 -5 -10 -13 -7 -17 2
-5 -2 -8 -9 -8 -9 0 -9 -3 2 -10 8 -5 22 -7 30 -5 13 4 15 -2 12 -30 -3 -21 0
-35 7 -35 6 0 11 -15 11 -33 0 -36 21 -62 54 -68 11 -2 21 -11 24 -19 4 -12 2
-13 -9 -2 -18 17 -40 15 -33 -3 4 -8 12 -15 20 -15 8 0 14 -9 14 -20 0 -11 -6
-20 -14 -20 -11 0 -13 -9 -9 -34 3 -21 1 -36 -7 -41 -9 -5 -10 -1 -5 16 7 23
7 23 -8 4 -17 -22 -8 -40 24 -50 11 -4 17 -10 14 -15 -3 -5 16 -20 42 -34 26
-14 44 -25 39 -26 -5 0 -50 21 -100 47 -119 63 -213 153 -247 238 -32 83 -33
217 0 290 30 68 81 145 95 145 6 0 34 -15 61 -34z m653 -16 c1 -23 -3 -40 -9
-40 -7 0 -9 10 -4 27 5 22 4 25 -8 14 -9 -7 -13 -21 -10 -32 4 -12 0 -25 -8
-30 -9 -6 -10 -9 -2 -9 6 0 15 5 18 10 9 15 28 12 22 -4 -7 -17 60 -28 67 -11
2 5 5 -1 5 -14 1 -19 -1 -21 -14 -11 -16 13 -35 6 -35 -15 0 -8 7 -11 19 -8
28 7 22 -45 -12 -96 l-27 -40 -30 17 c-16 9 -28 23 -25 30 3 7 -4 12 -18 12
-18 0 -19 -2 -7 -10 8 -5 11 -10 7 -10 -13 0 -67 60 -67 75 0 7 -7 15 -15 19
-8 3 -15 1 -15 -4 0 -6 -7 -10 -15 -10 -8 0 -15 5 -15 11 0 5 3 8 8 6 9 -6 33
19 25 27 -4 3 -1 6 6 6 7 0 10 4 6 9 -3 5 0 13 6 17 8 4 9 3 5 -4 -4 -7 -1
-12 8 -12 12 0 16 10 16 36 0 21 4 33 10 29 12 -7 13 7 3 21 -5 5 2 -2 14 -16
13 -14 23 -28 23 -32 0 -5 5 -8 10 -8 6 0 10 10 10 22 0 16 34 68 45 68 1 0 2
-18 3 -40z m-728 -545 c21 -42 25 -64 25 -135 -1 -105 -26 -193 -100 -343 -29
-59 -49 -110 -44 -113 5 -3 7 -10 4 -15 -3 -5 1 -6 9 -3 24 9 140 -113 172
-182 32 -69 44 -203 25 -280 -7 -26 -10 -48 -8 -50 5 -6 96 231 107 279 5 25
14 57 21 73 19 50 49 205 50 258 1 41 3 46 9 26 8 -24 8 -24 9 7 1 17 -3 34
-8 37 -5 3 -5 25 -1 48 4 24 11 72 14 108 4 35 10 67 14 70 4 3 7 14 7 25 0
11 6 19 13 17 6 -1 12 3 12 9 0 6 6 16 13 22 91 82 91 82 39 24 -32 -36 -53
-70 -56 -90 -12 -79 -26 -187 -31 -242 -3 -33 -8 -70 -11 -82 -2 -13 0 -23 6
-23 5 0 10 5 10 11 0 13 108 176 122 186 6 3 3 -6 -7 -20 -9 -14 -12 -28 -7
-31 13 -8 28 12 36 47 5 22 4 27 -6 21 -19 -12 45 66 78 96 16 14 7 1 -18 -28
-28 -32 -45 -59 -41 -68 4 -12 8 -12 19 3 7 10 14 24 14 31 0 7 4 11 10 7 5
-3 -33 -63 -85 -133 -93 -126 -155 -230 -155 -259 0 -8 -3 -12 -7 -10 -5 3 -9
-17 -10 -44 0 -27 1 -49 3 -49 1 0 12 20 23 45 45 102 158 238 243 291 l39 25
26 -21 c14 -11 30 -20 36 -20 5 0 -2 10 -17 21 -15 12 -24 25 -19 29 15 14
126 51 195 65 97 21 119 17 28 -4 -41 -10 -102 -26 -135 -36 l-60 -17 55 -18
c51 -17 52 -18 22 -19 -25 -1 -35 -6 -39 -21 -4 -16 -14 -20 -47 -21 -22 0
-35 -3 -28 -6 24 -9 12 -20 -20 -17 -29 3 -30 3 -8 -4 22 -7 23 -9 7 -15 -43
-17 -100 4 -80 29 4 5 -9 -7 -30 -25 -20 -19 -37 -39 -37 -44 0 -4 13 6 28 23
25 27 30 29 42 15 7 -8 28 -15 46 -15 19 0 34 -4 34 -10 0 -5 -12 -10 -27 -10
-48 0 -72 -11 -75 -34 -3 -20 -48 -38 -48 -19 0 13 -39 13 -46 0 -4 -7 -4 -9
1 -5 4 4 14 3 21 -3 7 -6 25 -15 41 -20 28 -9 28 -9 -4 -4 -21 3 -38 -1 -48
-12 -9 -8 -18 -13 -21 -10 -10 9 6 27 24 28 14 0 13 2 -3 8 -25 10 -54 -24
-36 -42 6 -6 11 -21 11 -34 0 -17 -5 -23 -22 -22 -13 0 -17 3 -10 6 6 2 12 17
12 31 l0 27 -19 -31 c-10 -17 -21 -41 -25 -55 -3 -13 -3 -18 0 -11 3 6 10 12
15 12 16 0 10 -26 -11 -45 -20 -18 -21 -18 -14 1 7 17 6 17 -9 5 -21 -17 -22
-40 -2 -47 15 -6 45 17 45 35 0 6 9 11 21 11 11 0 17 5 14 10 -3 6 -1 10 5 10
7 0 20 10 31 23 13 14 17 16 13 5 -6 -17 -137 -138 -149 -138 -3 0 -3 10 1 23
13 42 -7 9 -26 -44 -23 -62 -25 -89 -7 -89 6 0 2 -8 -11 -18 -29 -23 -78 -182
-90 -295 -16 -148 -14 -533 3 -737 9 -106 13 -196 8 -200 -11 -11 -115 -41
-121 -36 -2 3 -6 96 -9 208 -4 153 -2 235 11 333 8 72 25 209 36 305 11 96 25
208 31 247 15 94 6 107 -103 160 -85 41 -152 97 -169 140 -20 53 -1 156 48
265 25 55 26 66 27 260 2 163 6 214 20 258 28 88 68 171 80 167 6 -1 22 -25
36 -52z m135 -256 c-4 -6 -1 -10 6 -8 35 4 51 -1 45 -17 -3 -8 -2 -12 4 -9 5
3 18 1 27 -4 10 -6 12 -11 6 -11 -8 0 -13 -12 -12 -27 l1 -28 8 25 c8 24 8 23
9 -8 1 -18 -2 -31 -6 -29 -5 3 -9 -6 -9 -20 -2 -29 -39 -67 -56 -57 -8 5 -9 2
-5 -9 5 -13 1 -17 -14 -17 -11 0 -18 4 -15 9 3 5 -1 12 -10 15 -8 3 -12 2 -9
-4 3 -6 1 -10 -5 -10 -15 0 -101 92 -97 104 2 6 17 13 33 17 l29 5 -24 8 c-23
8 -24 9 -6 22 10 7 23 11 28 7 6 -4 8 0 4 11 -5 13 -2 15 17 12 18 -3 25 1 29
15 3 10 10 19 17 19 6 0 8 -5 5 -11z m-555 -374 c6 -49 17 -187 25 -305 8
-118 18 -235 21 -259 l7 -44 23 79 c15 49 22 94 19 119 -3 26 -2 32 3 16 l7
-24 12 25 c6 13 9 38 7 54 -4 24 -3 26 5 9 5 -11 10 -18 10 -15 5 29 50 139
50 123 1 -13 -17 -69 -38 -125 -21 -57 -53 -149 -71 -206 l-32 -103 5 -492 c3
-271 8 -504 12 -520 7 -26 6 -27 -32 -27 l-40 0 -7 128 c-3 70 -2 224 4 342
22 463 24 911 6 1120 -21 240 -20 220 -16 250 2 16 4 11 7 -15 1 -22 7 -80 13
-130z"/>
<path d="M1887 7660 c-9 -11 -17 -25 -17 -30 0 -6 -4 -10 -10 -10 -5 0 -10 -6
-10 -14 0 -8 -7 -16 -15 -20 -21 -8 -19 -30 16 -144 l30 -100 -35 -52 c-37
-54 -51 -101 -44 -149 3 -23 0 -31 -15 -35 -11 -3 -29 0 -39 5 -10 5 -22 8
-27 5 -4 -3 -17 1 -27 10 -18 14 -18 15 4 4 12 -6 22 -7 22 -1 0 19 -96 54
-162 59 -59 4 -68 2 -68 -12 0 -9 8 -20 17 -23 15 -6 15 -7 -3 -14 -17 -7 -16
-8 6 -8 14 -1 32 -6 40 -11 12 -8 11 -10 -7 -10 -13 0 -23 -4 -23 -10 0 -5 9
-10 20 -10 11 0 36 -6 55 -14 46 -20 229 -10 221 11 -5 11 -1 11 16 -2 13 -8
34 -15 48 -15 58 0 81 120 38 203 -22 44 -34 102 -19 93 5 -3 12 1 15 10 4 10
2 13 -7 8 -6 -4 -2 4 11 18 29 32 62 126 62 178 0 84 -52 128 -93 80z"/>
<path d="M5105 7404 c-9 -9 -14 -23 -11 -31 4 -8 4 -19 1 -24 -3 -4 -7 -66
-10 -136 -2 -70 -7 -144 -11 -163 -7 -32 -6 -34 9 -18 17 16 57 14 57 -3 0
-15 15 -10 38 11 23 22 24 41 3 78 l-12 23 38 -20 c33 -16 41 -27 57 -80 11
-34 23 -61 27 -61 5 0 11 -11 15 -25 3 -14 11 -25 17 -25 6 0 8 -3 5 -6 -4 -3
-2 -20 3 -37 5 -18 10 -64 10 -104 1 -51 4 -70 13 -67 15 6 15 1 15 299 0 273
-4 296 -53 292 -14 -1 -24 0 -24 3 3 13 -25 50 -38 50 -8 0 -13 4 -10 8 3 5
-8 19 -24 30 -35 26 -92 29 -115 6z"/>
<path d="M5025 6918 c-22 -45 -41 -85 -43 -89 -2 -4 14 -9 35 -11 25 -2 37 -7
35 -16 -1 -8 2 -11 7 -8 15 10 39 -33 36 -62 -3 -30 19 -62 44 -62 15 0 41
-41 41 -65 0 -7 -14 -32 -32 -56 -22 -31 -25 -38 -9 -24 12 11 38 20 57 22 39
2 48 -10 59 -79 3 -21 10 -38 14 -38 13 0 41 123 41 180 0 50 -2 53 -65 116
-45 45 -71 64 -82 60 -12 -5 -13 -3 -5 6 8 10 2 25 -20 58 -17 25 -39 66 -48
93 -9 26 -19 49 -21 52 -3 2 -23 -33 -44 -77z"/>
<path d="M1850 6777 c0 -8 6 -18 13 -20 7 -4 6 -6 -5 -6 -9 -1 -18 3 -20 9 -1
5 -13 7 -25 4 -19 -5 -20 -10 -12 -31 7 -19 6 -30 -4 -42 -16 -18 -7 -67 11
-63 7 1 12 -2 12 -7 0 -5 21 -14 48 -20 38 -8 52 -7 70 5 20 13 43 19 84 23
15 2 -16 51 -31 51 -14 0 -14 2 -1 10 13 8 12 11 -5 25 -11 9 -14 14 -7 10 6
-3 12 -2 12 3 0 6 -26 18 -57 28 -32 9 -64 22 -70 27 -9 7 -13 5 -13 -6z"/>
<path d="M2307 6448 c2 -5 -1 -8 -6 -8 -15 0 -14 -37 2 -43 10 -4 10 -6 0 -6
-19 -1 -16 -41 3 -48 13 -5 13 -7 2 -14 -10 -7 -9 -9 5 -9 10 0 15 -4 12 -10
-3 -5 0 -10 7 -10 9 0 9 -3 -2 -10 -11 -7 -11 -10 -2 -10 8 0 10 -5 6 -12 -5
-7 -2 -9 9 -5 12 4 14 2 10 -10 -4 -10 3 -23 18 -34 29 -22 59 -25 59 -5 0 8
5 16 11 18 14 5 18 42 5 50 -8 6 -8 8 1 8 6 0 9 9 6 20 -3 11 -10 20 -15 20
-5 0 -6 4 -3 10 3 5 -1 20 -10 33 -8 13 -12 27 -8 32 5 4 2 5 -4 1 -7 -4 -13
-3 -13 3 0 5 -12 14 -27 19 -16 6 -22 11 -15 11 28 2 9 16 -22 16 -19 0 -32
-3 -29 -7z"/>
<path d="M1889 5956 c46 -66 140 -146 234 -199 77 -43 126 -82 116 -91 -2 -2
-50 14 -107 35 -91 35 -238 69 -295 69 -20 0 -20 -1 4 -26 79 -85 254 -179
419 -225 138 -38 140 -39 210 -103 l55 -51 -57 63 c-32 34 -72 84 -89 110 -18
26 -47 63 -64 83 -17 19 -39 59 -48 87 -14 41 -34 68 -94 128 -79 78 -147 119
-242 148 -30 9 -59 16 -63 16 -5 0 5 -20 21 -44z"/>
</g>
</svg>
